<svg width="18" height="18" viewBox="0 0 18 18" fill="none" xmlns="http://www.w3.org/2000/svg">
<circle cx="9.00018" cy="9.00018" r="8.18182" fill="#222222"/>
<path fill-rule="evenodd" clip-rule="evenodd" d="M11.8884 6.97918C12.128 6.73954 12.128 6.35101 11.8884 6.11137C11.6487 5.87173 11.2602 5.87173 11.0206 6.11137L8.99984 8.1321L6.97918 6.11145C6.73954 5.87181 6.35101 5.87181 6.11137 6.11145C5.87173 6.35109 5.87173 6.73962 6.11137 6.97926L8.13202 8.99992L6.11146 11.0205C5.87182 11.2601 5.87182 11.6486 6.11146 11.8883C6.3511 12.1279 6.73964 12.1279 6.97928 11.8883L8.99984 9.86773L11.0205 11.8884C11.2601 12.128 11.6487 12.128 11.8883 11.8884C12.1279 11.6487 12.1279 11.2602 11.8883 11.0206L9.86765 8.99992L11.8884 6.97918Z" fill="white"/>
</svg>
